<?xml version="1.0" standalone="no"?><!DOCTYPE svg PUBLIC "-//W3C//DTD SVG 1.1//EN" "http://www.w3.org/Graphics/SVG/1.1/DTD/svg11.dtd"><svg t="1630049238661" class="icon" viewBox="0 0 1024 1024" version="1.1" xmlns="http://www.w3.org/2000/svg" p-id="8390" xmlns:xlink="http://www.w3.org/1999/xlink" width="32" height="32"><defs><style type="text/css"></style></defs><path d="M802.816 845.824H206.848c-34.816 0-61.44-26.624-61.44-61.44V217.088c0-34.816 26.624-61.44 61.44-61.44h595.968c34.816 0 61.44 26.624 61.44 61.44v567.296c0 34.816-28.672 61.44-61.44 61.44z" fill="#FFFFFF" p-id="8391"></path><path d="M798.72 854.016H172.032c-28.672 0-53.248-24.576-53.248-53.248V495.616h753.664v284.672c0 40.96-32.768 73.728-73.728 73.728z" fill="#4C66AF" p-id="8392"></path><path d="M804.864 133.12h-614.4c-45.056 0-81.92 36.864-81.92 81.92v573.44c0 6.144 0 10.24 2.048 16.384 2.048 10.24 6.144 20.48 12.288 28.672 2.048 4.096 6.144 8.192 10.24 12.288 8.192 8.192 16.384 14.336 26.624 18.432 10.24 4.096 20.48 6.144 32.768 6.144h614.4c12.288 0 22.528-2.048 32.768-6.144 10.24-4.096 18.432-10.24 26.624-18.432 4.096-4.096 6.144-8.192 10.24-12.288 6.144-8.192 10.24-18.432 12.288-28.672 2.048-6.144 2.048-10.24 2.048-16.384v-573.44c-4.096-45.056-40.96-81.92-86.016-81.92z m40.96 655.36c0 22.528-18.432 40.96-40.96 40.96h-614.4c-22.528 0-40.96-18.432-40.96-40.96v-573.44c0-22.528 18.432-40.96 40.96-40.96h614.4c22.528 0 40.96 18.432 40.96 40.96v573.44z" fill="#3F4651" p-id="8393"></path><path d="M149.504 481.28h696.32v40.96h-696.32z" fill="#3F4651" p-id="8394"></path><path d="M497.664 495.616m-139.264 0a139.264 139.264 0 1 0 278.528 0 139.264 139.264 0 1 0-278.528 0Z" fill="#DD5B59" p-id="8395"></path><path d="M497.664 374.784c65.536 0 118.784 53.248 118.784 118.784S563.2 614.4 497.664 614.4s-118.784-53.248-118.784-118.784 53.248-120.832 118.784-120.832m0-40.96c-88.064 0-159.744 71.68-159.744 159.744S409.6 655.36 497.664 655.36s159.744-71.68 159.744-159.744-69.632-161.792-159.744-161.792z" fill="#3E4550" p-id="8396"></path><path d="M739.328 270.336m-43.008 0a43.008 43.008 0 1 0 86.016 0 43.008 43.008 0 1 0-86.016 0Z" fill="#3F4651" p-id="8397"></path></svg>